/* XPM */
static char * bottom_left_active_xpm[] = {
"27 5 4 1",
" 	c #585A5D",
".	c #FFFFFF",
"+	c #EAEBEC",
"@	c #CFD0D1",
"                           ",
" ......................... ",
" +++++++++++++++++++++++++ ",
" @@@@@@@@@@@@@@@@@@@@@@@@@ ",
"                           "};
