/* XPM */
static char * close_inactive_xpm[] = {
"16 16 10 1",
" 	c #928F8B",
".	c #FFFFFF",
"+	c #6D6C6C",
"@	c #FEFDFD",
"#	c #F9F8F8",
"$	c #FAF9F9",
"%	c #FBFAFA",
"&	c #FBFBFB",
"*	c #FCFCFC",
"=	c #FDFCFC",
"                ",
" .............. ",
" .............. ",
" .............. ",
" .............. ",
" ....++..++.... ",
" ....++++++.... ",
" @@@@@++++@@@@@ ",
" #####++++##### ",
" $$$$++++++$$$$ ",
" %%%%++%%++%%%% ",
" &&&&&&&&&&&&&& ",
" ************** ",
" ============== ",
" @@@@@@@@@@@@@@ ",
"                "};
