/* XPM */
static char * close_active_xpm[] = {
"16 16 16 1",
" 	c #49678B",
".	c #ADC8EA",
"+	c #A9C5E8",
"@	c #A5C2E6",
"#	c #A1BFE5",
"$	c #9CBBE3",
"%	c #F4F5F6",
"&	c #98B8E1",
"*	c #90B2DE",
"=	c #86ABD9",
"-	c #85AAD8",
";	c #83A8D7",
">	c #81A7D6",
",	c #7FA5D5",
"'	c #7DA4D3",
")	c #7BA2D2",
"                ",
" .............. ",
" ++++++++++++++ ",
" @@@@@@@@@@@@@@ ",
" ############## ",
" $$$$%%$$%%$$$$ ",
" &&&&%%%%%%&&&& ",
" *****%%%%***** ",
" =====%%%%===== ",
" ----%%%%%%---- ",
" ;;;;%%;;%%;;;; ",
" >>>>>>>>>>>>>> ",
" ,,,,,,,,,,,,,, ",
" '''''''''''''' ",
" )))))))))))))) ",
"                "};
