/* XPM */
static char * hide_inactive_xpm[] = {
"16 16 10 1",
" 	c #928F8B",
".	c #FFFFFF",
"+	c #FEFDFD",
"@	c #F9F8F8",
"#	c #FAF9F9",
"$	c #6D6C6C",
"%	c #FBFAFA",
"&	c #FBFBFB",
"*	c #FCFCFC",
"=	c #FDFCFC",
"                ",
" .............. ",
" .............. ",
" .............. ",
" .............. ",
" .............. ",
" .............. ",
" ++++++++++++++ ",
" @@@@@@@@@@@@@@ ",
" ####$$$$$$#### ",
" %%%%$$$$$$%%%% ",
" &&&&&&&&&&&&&& ",
" ************** ",
" ============== ",
" ++++++++++++++ ",
"                "};
